<svg width="21" height="21" viewBox="0 0 21 21" fill="none" xmlns="http://www.w3.org/2000/svg">
<path d="M17.8911 17.8955H14.7814V13.0226C14.7814 11.8606 14.7578 10.3652 13.1609 10.3652C11.5395 10.3652 11.2919 11.6296 11.2919 12.9369V17.8955H8.18213V7.875H11.1694V9.24088H11.2096C11.627 8.45337 12.642 7.62213 14.1584 7.62213C17.3092 7.62213 17.892 9.69588 17.892 12.3953V17.8955H17.8911ZM4.66988 6.50388C3.66887 6.50388 2.86475 5.69362 2.86475 4.697C2.86475 3.70125 3.66975 2.89188 4.66988 2.89188C5.66738 2.89188 6.47587 3.70125 6.47587 4.697C6.47587 5.69362 5.6665 6.50388 4.66988 6.50388ZM6.22913 17.8955H3.11063V7.875H6.22913V17.8955ZM19.4469 0H1.54963C0.693 0 0 0.67725 0 1.51287V19.4871C0 20.3236 0.693 21 1.54963 21H19.4443C20.3 21 21 20.3236 21 19.4871V1.51287C21 0.67725 20.3 0 19.4443 0H19.4469Z" fill="#CACACA"/>
</svg>
