<svg width="36" height="36" viewBox="0 0 36 36" fill="none" xmlns="http://www.w3.org/2000/svg">
<circle cx="18" cy="18" r="18" fill="#5E88A4"/>
<path d="M29 18.0023C29 16.5145 27.1749 15.1046 24.3767 14.2303C25.0224 11.3188 24.7354 9.00252 23.4709 8.26093C23.1794 8.08698 22.8386 8.00458 22.4664 8.00458V9.02541C22.6727 9.02541 22.8386 9.06661 22.9776 9.14443C23.5874 9.50149 23.852 10.8611 23.6458 12.6098C23.5964 13.0401 23.5157 13.4932 23.4171 13.9556C22.5381 13.7359 21.5785 13.5665 20.5695 13.4566C19.9641 12.6098 19.3363 11.8407 18.704 11.1678C20.1659 9.78073 21.5381 9.02083 22.4708 9.02083V8C21.2377 8 19.6233 8.89723 17.991 10.4537C16.3587 8.90639 14.7444 8.01831 13.5112 8.01831V9.03914C14.4395 9.03914 15.8162 9.79446 17.278 11.1724C16.6502 11.8453 16.0224 12.6098 15.426 13.4566C14.4125 13.5665 13.4529 13.7359 12.574 13.9602C12.4709 13.5024 12.3946 13.0583 12.3408 12.6326C12.13 10.884 12.3902 9.52438 12.9955 9.16274C13.13 9.08034 13.3049 9.04372 13.5112 9.04372V8.02289C13.1345 8.02289 12.7937 8.10529 12.4978 8.27924C11.2377 9.02083 10.9552 11.3326 11.6054 14.2348C8.81614 15.1138 7 16.5191 7 18.0023C7 19.4901 8.82511 20.9 11.6233 21.7743C10.9776 24.6858 11.2646 27.0021 12.5291 27.7437C12.8206 27.9176 13.1614 28 13.5381 28C14.7713 28 16.3857 27.1028 18.018 25.5464C19.6502 27.0936 21.2646 27.9817 22.4978 27.9817C22.8744 27.9817 23.2152 27.8993 23.5112 27.7254C24.7713 26.9837 25.0538 24.672 24.4036 21.7697C27.1839 20.8954 29 19.4855 29 18.0023ZM23.1614 14.9489C22.9955 15.5395 22.7892 16.1483 22.5561 16.7572C22.3722 16.3909 22.1794 16.0247 21.9686 15.6585C21.7624 15.2923 21.5426 14.9352 21.3229 14.5873C21.9597 14.6834 22.574 14.8025 23.1614 14.9489ZM21.1076 19.8242C20.7579 20.4422 20.3991 21.0282 20.0269 21.5729C19.3587 21.6324 18.6816 21.6645 18 21.6645C17.3229 21.6645 16.6457 21.6324 15.9821 21.5775C15.6099 21.0327 15.2467 20.4514 14.8969 19.838C14.5561 19.2383 14.2466 18.6294 13.9641 18.016C14.2422 17.4026 14.5561 16.7892 14.8924 16.1895C15.2421 15.5715 15.6009 14.9856 15.9731 14.4408C16.6413 14.3813 17.3184 14.3493 18 14.3493C18.6771 14.3493 19.3543 14.3813 20.0179 14.4362C20.3901 14.981 20.7533 15.5624 21.1031 16.1758C21.4439 16.7755 21.7534 17.3843 22.0359 17.9977C21.7534 18.6111 21.4439 19.2246 21.1076 19.8242ZM22.5561 19.2291C22.7982 19.8425 23.0045 20.4559 23.1749 21.0511C22.5875 21.1975 21.9686 21.3211 21.3274 21.4173C21.5471 21.0648 21.7668 20.7031 21.9731 20.3323C22.1794 19.9661 22.3722 19.5953 22.5561 19.2291ZM18.009 24.1135C17.5919 23.6741 17.1749 23.1843 16.7623 22.6487C17.1659 22.667 17.5785 22.6807 17.9955 22.6807C18.417 22.6807 18.8341 22.6716 19.2421 22.6487C18.8386 23.1843 18.4215 23.6741 18.009 24.1135ZM14.6726 21.4173C14.0359 21.3211 13.4215 21.2021 12.8341 21.0556C13 20.4651 13.2063 19.8563 13.4395 19.2475C13.6233 19.6137 13.8161 19.9799 14.0269 20.3461C14.2377 20.7123 14.4529 21.0694 14.6726 21.4173ZM17.9866 11.8911C18.4036 12.3305 18.8206 12.8203 19.2332 13.3559C18.8296 13.3376 18.417 13.3239 18 13.3239C17.5785 13.3239 17.1614 13.333 16.7534 13.3559C17.157 12.8203 17.574 12.3305 17.9866 11.8911ZM14.6682 14.5873C14.4485 14.9398 14.2287 15.3014 14.0224 15.6722C13.8161 16.0384 13.6233 16.4047 13.4395 16.7709C13.1973 16.1575 12.9911 15.5441 12.8206 14.9489C13.4081 14.8071 14.0269 14.6834 14.6682 14.5873ZM10.6099 20.3186C9.02242 19.6274 7.99552 18.721 7.99552 18.0023C7.99552 17.2836 9.02242 16.3726 10.6099 15.686C10.9955 15.5166 11.417 15.3656 11.852 15.2236C12.1076 16.1209 12.444 17.0547 12.861 18.0115C12.4484 18.9636 12.1166 19.8929 11.8655 20.7855C11.4215 20.6436 11 20.488 10.6099 20.3186ZM13.0224 26.8601C12.4126 26.5031 12.148 25.1435 12.3542 23.3948C12.4036 22.9645 12.4843 22.5113 12.5829 22.049C13.4619 22.2687 14.4215 22.4381 15.4305 22.548C16.0359 23.3948 16.6637 24.1639 17.296 24.8368C15.8341 26.2239 14.4619 26.9837 13.5292 26.9837C13.3273 26.9792 13.157 26.938 13.0224 26.8601ZM23.6592 23.3719C23.87 25.1207 23.6099 26.4802 23.0045 26.8418C22.87 26.9243 22.6951 26.9609 22.4888 26.9609C21.5605 26.9609 20.1838 26.2055 18.722 24.8276C19.3498 24.1547 19.9776 23.3902 20.574 22.5434C21.5875 22.4335 22.5471 22.2641 23.426 22.0399C23.5292 22.5022 23.6099 22.9462 23.6592 23.3719ZM25.3856 20.3186C25 20.488 24.5785 20.6391 24.1435 20.781C23.8879 19.8837 23.5516 18.9499 23.1345 17.9931C23.5471 17.041 23.8789 16.1117 24.1301 15.219C24.574 15.3609 24.9955 15.5166 25.3901 15.686C26.9776 16.3772 28.0045 17.2836 28.0045 18.0023C28 18.721 26.9731 19.6319 25.3856 20.3186Z" fill="white"/>
<path d="M17.9956 20.0944C19.1274 20.0944 20.045 19.1578 20.045 18.0024C20.045 16.847 19.1274 15.9104 17.9956 15.9104C16.8638 15.9104 15.9463 16.847 15.9463 18.0024C15.9463 19.1578 16.8638 20.0944 17.9956 20.0944Z" fill="white"/>
</svg>
