<svg width="36" height="36" viewBox="0 0 36 36" fill="none" xmlns="http://www.w3.org/2000/svg">
<circle cx="18" cy="18" r="18" fill="#5E88A4"/>
<path d="M22.2478 21.3533C23.0445 21.2808 23.6623 20.5413 23.622 19.6578C23.5798 18.7743 22.8932 18.0648 22.0562 18.0648H22.0003C21.1358 18.0947 20.462 18.8613 20.4895 19.7748C20.517 20.2378 20.6967 20.6148 20.9424 20.8893C19.9816 22.8594 18.5396 24.3074 16.355 25.5244C14.8855 26.3345 13.3335 26.6399 11.8227 26.4224C10.5594 26.2349 9.57117 25.6394 8.96613 24.6844C8.06039 23.2354 7.97788 21.6723 8.73236 20.1083C9.28332 18.9783 10.1065 18.1527 10.6566 17.7467C10.5191 17.3707 10.3541 16.7337 10.2716 16.2562C6.20491 19.3272 6.61836 23.5263 7.85412 25.5109C8.77453 26.9589 10.6566 27.885 12.7165 27.885C13.2656 27.885 13.8432 27.8424 14.406 27.6974C17.9777 26.9734 20.6829 24.7144 22.235 21.3833L22.2478 21.3533ZM27.1505 17.7322C25.0228 15.0962 21.8903 13.6481 18.3187 13.6481H17.8511C17.6192 13.1126 17.0838 12.7791 16.4788 12.7791H16.4375C15.5731 12.7791 14.8993 13.5621 14.9277 14.4737C14.9552 15.3417 15.6556 16.0667 16.4935 16.0667H16.5613C17.1801 16.0377 17.7155 15.6317 17.9346 15.0527H18.4434C20.5601 15.0527 22.5641 15.7042 24.3911 16.9783C25.791 17.9488 26.7948 19.2228 27.3577 20.7443C27.8509 21.9894 27.8243 23.2064 27.3165 24.2214C26.5336 25.8134 25.2144 26.6544 23.4707 26.6544C22.3716 26.6544 21.3008 26.2919 20.7508 26.0319C20.4217 26.32 19.8716 26.7985 19.4729 27.0884C20.6811 27.6665 21.904 28 23.0848 28C25.7635 28 27.7537 26.4079 28.5101 24.8719C29.3333 23.1339 29.2654 20.2088 27.1634 17.7032L27.1505 17.7322ZM12.9493 21.8734C12.9759 22.7424 13.6763 23.4664 14.5151 23.4664H14.5701C15.4493 23.4374 16.1222 22.6709 16.0809 21.7574C16.0809 20.8884 15.3668 20.1653 14.5289 20.1653H14.473C14.418 20.1653 14.3364 20.1653 14.2667 20.1933C13.1272 18.1653 12.6459 15.9923 12.8256 13.6481C12.9347 11.8811 13.4847 10.3451 14.473 9.07105C15.2971 7.98453 16.8492 7.44804 17.9071 7.42001C20.8736 7.36104 22.1103 11.2586 22.2056 12.8081L23.5789 13.2421C23.2626 8.49203 20.462 6 17.7833 6C15.2696 6 12.9493 7.92653 12.0143 10.7511C10.7373 14.5172 11.5752 18.1373 13.1409 21.0343C13.0044 21.2228 12.9218 21.5553 12.9493 21.8734Z" fill="white"/>
</svg>
