<svg width="1316" height="763" viewBox="0 0 1316 763" fill="none" xmlns="http://www.w3.org/2000/svg">
<path d="M120 50H475V763H120V50Z" fill="#DBE0D9"/>
<ellipse cx="297.5" cy="50.5" rx="177.5" ry="50.5" fill="#FAEACB"/>
<rect x="420" y="299" width="216" height="464" fill="#DAE6F1"/>
<ellipse cx="528.254" cy="300" rx="108.254" ry="39" fill="white"/>
<rect x="1" y="300" width="317" height="463" fill="#CADBE2"/>
<ellipse cx="159.059" cy="300.081" rx="159.059" ry="39.0809" fill="#FAEACB"/>
<path d="M900 50H1315V763H900V50Z" fill="#D1ECFB"/>
<ellipse rx="207.561" ry="50.5017" transform="matrix(1 0 0.00812186 0.999967 1107.97 50.5)" fill="#FAEACB"/>
<path d="M661 186H1133V763H661V186Z" fill="#FBD0D0"/>
<ellipse cx="896.83" cy="181.5" rx="236.83" ry="50.5" fill="#FAEACB"/>
<rect x="360" y="436.113" width="318" height="326.887" fill="#DDC6BA"/>
<ellipse cx="519.059" cy="436.113" rx="159.059" ry="44.1128" fill="white"/>
<rect x="780" y="431" width="424" height="332" fill="#C0C3D9"/>
<ellipse cx="992.041" cy="431" rx="212.041" ry="39" fill="white"/>
</svg>
