<svg width="355" height="763" viewBox="0 0 355 763" fill="none" xmlns="http://www.w3.org/2000/svg">
<path d="M0 50H355V763H0V50Z" fill="#DBE0D9"/>
<ellipse cx="177.5" cy="50.5" rx="177.5" ry="50.5" fill="#FAEACB"/>
<path d="M112.5 138.529H108.58V146H104.308V125.521H112.324C114.879 125.521 116.859 126.061 118.265 127.139C119.671 128.205 120.375 129.734 120.375 131.727C120.375 134.48 119.056 136.391 116.42 137.457L121.236 145.807V146H116.666L112.5 138.529ZM108.58 135.119H112.324C113.589 135.119 114.539 134.844 115.171 134.293C115.804 133.73 116.121 132.992 116.121 132.078C116.121 131.129 115.81 130.373 115.189 129.811C114.58 129.248 113.625 128.967 112.324 128.967H108.58V135.119ZM142.961 137.141H134.137V142.59H144.473V146H129.865V125.521H144.42V128.967H134.137V133.713H142.961V137.141ZM164.704 140.621C164.704 139.848 164.399 139.232 163.79 138.775C163.18 138.307 161.979 137.85 160.186 137.404C158.405 136.959 156.999 136.449 155.968 135.875C154.936 135.301 154.175 134.633 153.682 133.871C153.202 133.098 152.962 132.172 152.962 131.094C152.962 129.383 153.682 127.982 155.124 126.893C156.565 125.791 158.428 125.24 160.714 125.24C163.175 125.24 165.149 125.826 166.637 126.998C168.126 128.17 168.87 129.693 168.87 131.568H164.598C164.598 130.619 164.247 129.875 163.544 129.336C162.841 128.785 161.897 128.51 160.714 128.51C159.6 128.51 158.721 128.738 158.077 129.195C157.432 129.641 157.11 130.238 157.11 130.988C157.11 131.668 157.438 132.23 158.094 132.676C158.762 133.121 159.934 133.549 161.61 133.959C164.2 134.592 166.057 135.43 167.182 136.473C168.307 137.516 168.87 138.869 168.87 140.533C168.87 142.326 168.143 143.732 166.69 144.752C165.237 145.771 163.315 146.281 160.925 146.281C159.307 146.281 157.825 146.012 156.477 145.473C155.141 144.922 154.104 144.148 153.366 143.152C152.628 142.156 152.259 140.996 152.259 139.672H156.548C156.548 141.922 158.048 143.047 161.048 143.047C162.184 143.047 163.075 142.83 163.719 142.396C164.376 141.963 164.704 141.371 164.704 140.621ZM194.55 125.521V139.004C194.55 141.23 193.794 143 192.283 144.312C190.783 145.625 188.749 146.281 186.183 146.281C183.616 146.281 181.583 145.637 180.083 144.348C178.583 143.047 177.833 141.266 177.833 139.004V125.521H182.07V139.021C182.07 140.369 182.439 141.348 183.177 141.957C183.915 142.566 184.917 142.871 186.183 142.871C188.866 142.871 190.232 141.629 190.279 139.145V125.521H194.55ZM209.912 125.521L215.836 140.34L221.707 125.521H227.297V146H223.043V140.463L223.482 130.443L217.295 146H214.342L208.172 130.531L208.611 140.463V146H204.357V125.521H209.912ZM250.498 137.141H241.674V142.59H252.01V146H237.403V125.521H251.957V128.967H241.674V133.713H250.498V137.141Z" fill="white"/>
</svg>
