<svg width="425" height="371" viewBox="0 0 425 371" fill="none" xmlns="http://www.w3.org/2000/svg">
<rect y="39" width="424" height="332" fill="#C0C3D9"/>
<ellipse cx="212.041" cy="39" rx="212.041" ry="39" fill="white"/>
<path d="M141.631 116.18C141.432 118.418 140.553 120.164 138.994 121.418C137.448 122.66 135.403 123.281 132.86 123.281C130.094 123.281 127.903 122.402 126.285 120.645C124.668 118.887 123.86 116.443 123.86 113.314V112.119C123.86 110.139 124.229 108.404 124.967 106.916C125.705 105.416 126.766 104.262 128.149 103.453C129.532 102.645 131.137 102.24 132.965 102.24C135.473 102.24 137.489 102.879 139.012 104.156C140.535 105.434 141.414 107.209 141.649 109.482H137.377C137.237 108.17 136.797 107.209 136.059 106.6C135.332 105.979 134.301 105.668 132.965 105.668C129.743 105.668 128.131 107.836 128.131 112.172V113.438C128.131 115.605 128.524 117.223 129.309 118.289C130.094 119.344 131.278 119.871 132.86 119.871C134.266 119.871 135.332 119.584 136.059 119.01C136.785 118.436 137.225 117.492 137.377 116.18H141.631ZM168.612 113.227C168.612 116.32 167.763 118.77 166.063 120.574C164.376 122.379 162.143 123.281 159.366 123.281C156.6 123.281 154.356 122.379 152.634 120.574C150.911 118.758 150.05 116.279 150.05 113.139V112.33C150.05 110.314 150.436 108.539 151.21 107.004C151.995 105.457 153.091 104.279 154.497 103.471C155.903 102.65 157.515 102.24 159.331 102.24C162.143 102.24 164.393 103.16 166.081 105C167.768 106.828 168.612 109.307 168.612 112.436V113.227ZM164.358 112.295C164.358 110.15 163.919 108.516 163.04 107.391C162.161 106.266 160.925 105.703 159.331 105.703C157.761 105.703 156.53 106.266 155.64 107.391C154.749 108.516 154.304 110.15 154.304 112.295V113.227C154.304 115.312 154.749 116.941 155.64 118.113C156.542 119.273 157.784 119.854 159.366 119.854C160.96 119.854 162.19 119.285 163.058 118.148C163.925 117 164.358 115.359 164.358 113.227V112.295ZM195.787 123H191.533L182.322 109.025V123H178.05V102.521H182.322L191.533 116.514V102.521H195.787V123ZM222.205 105.967H215.42V123H211.148V105.967H204.451V102.521H222.205V105.967ZM243.42 118.623H234.948L233.278 123H228.971L237.251 102.521H241.17L249.415 123H245.09L243.42 118.623ZM236.196 115.371H242.172L239.184 107.602L236.196 115.371ZM274.444 116.18C274.245 118.418 273.366 120.164 271.808 121.418C270.261 122.66 268.216 123.281 265.673 123.281C262.907 123.281 260.716 122.402 259.099 120.645C257.482 118.887 256.673 116.443 256.673 113.314V112.119C256.673 110.139 257.042 108.404 257.78 106.916C258.519 105.416 259.579 104.262 260.962 103.453C262.345 102.645 263.95 102.24 265.778 102.24C268.286 102.24 270.302 102.879 271.825 104.156C273.349 105.434 274.228 107.209 274.462 109.482H270.191C270.05 108.17 269.61 107.209 268.872 106.6C268.146 105.979 267.114 105.668 265.778 105.668C262.556 105.668 260.944 107.836 260.944 112.172V113.438C260.944 115.605 261.337 117.223 262.122 118.289C262.907 119.344 264.091 119.871 265.673 119.871C267.079 119.871 268.146 119.584 268.872 119.01C269.599 118.436 270.038 117.492 270.191 116.18H274.444ZM299.861 105.967H293.076V123H288.804V105.967H282.107V102.521H299.861V105.967Z" fill="white"/>
</svg>
