<svg width="1440" height="1024" viewBox="0 0 1440 1024" fill="none" xmlns="http://www.w3.org/2000/svg">
<rect width="1440" height="1024" fill="#F6F6F6"/>
<path d="M164.702 307.587L519.947 330.645V1024.33H164.702V307.587Z" fill="#DBE0D9"/>
<ellipse cx="342.469" cy="318.687" rx="178.209" ry="50.4193" transform="rotate(3.98656 342.469 318.687)" fill="#FAEACB"/>
<rect x="431.625" y="526.44" width="216.508" height="497.89" fill="#DAE6F1"/>
<ellipse cx="539.879" cy="526.049" rx="108.254" ry="44.1614" fill="white"/>
<rect x="33.7822" y="566.301" width="317.337" height="458.028" fill="#CADBE2"/>
<ellipse cx="192.059" cy="566.302" rx="159.059" ry="39.0809" fill="#FAEACB"/>
<path d="M989.504 331.817L1403.24 310.713V1024.33H989.504V331.817Z" fill="#D1ECFB"/>
<ellipse rx="207.242" ry="44.1727" transform="matrix(0.998491 -0.0549188 0.0630266 0.998012 1196.29 322.408)" fill="#FAEACB"/>
<path d="M671.19 498.691L1144.07 467.817V1024.33H671.19V498.691Z" fill="#FBD0D0"/>
<ellipse cx="907.455" cy="484.024" rx="236.83" ry="55.8856" transform="rotate(-3.47486 907.455 484.024)" fill="#FAEACB"/>
<rect x="380.819" y="681.981" width="318.118" height="342.348" fill="#DDC6BA"/>
<ellipse cx="539.878" cy="681.981" rx="159.059" ry="39.0809" fill="white"/>
<rect x="890.917" y="681.981" width="424.083" height="342.348" fill="#C0C3D9"/>
<ellipse cx="1102.96" cy="681.981" rx="212.041" ry="39.0809" fill="white"/>
<path d="M705.71 187.515C705.71 186.037 705.187 184.907 704.143 184.125C703.099 183.325 701.219 182.49 698.504 181.621C695.789 180.734 693.64 179.865 692.056 179.013C687.74 176.683 685.582 173.544 685.582 169.597C685.582 167.545 686.156 165.72 687.305 164.12C688.471 162.503 690.133 161.242 692.291 160.338C694.467 159.434 696.903 158.982 699.601 158.982C702.316 158.982 704.735 159.478 706.858 160.469C708.981 161.442 710.626 162.825 711.792 164.616C712.976 166.407 713.567 168.441 713.567 170.719H705.736C705.736 168.98 705.187 167.632 704.091 166.676C702.995 165.702 701.454 165.216 699.47 165.216C697.556 165.216 696.068 165.624 695.006 166.441C693.944 167.241 693.414 168.302 693.414 169.623C693.414 170.858 694.031 171.892 695.267 172.727C696.52 173.562 698.356 174.344 700.775 175.074C705.231 176.413 708.477 178.074 710.513 180.056C712.549 182.038 713.567 184.507 713.567 187.463C713.567 190.749 712.323 193.331 709.834 195.209C707.346 197.07 703.995 198 699.783 198C696.86 198 694.197 197.47 691.795 196.409C689.393 195.331 687.557 193.862 686.287 192.001C685.034 190.141 684.407 187.985 684.407 185.533H692.265C692.265 189.723 694.771 191.819 699.783 191.819C701.646 191.819 703.099 191.445 704.143 190.697C705.187 189.932 705.71 188.871 705.71 187.515Z" fill="#5E88A4"/>
<path d="M756.465 181.021H741.428V191.193H759.076V197.478H733.596V159.504H759.023V165.841H741.428V174.892H756.465V181.021Z" fill="#5E88A4"/>
<path d="M796.325 197.478H788.493V159.504H796.325V197.478Z" fill="#5E88A4"/>
<path d="M860.557 165.841H848.914V197.478H841.082V165.841H829.596V159.504H860.557V165.841Z" fill="#5E88A4"/>
<path d="M699.461 131.252H693.221V145.154H685.389V107.179H699.513C704.003 107.179 707.467 108.179 709.903 110.178C712.34 112.178 713.558 115.003 713.558 118.655C713.558 121.245 712.992 123.41 711.861 125.149C710.747 126.87 709.05 128.244 706.77 129.27L714.994 144.788V145.154H706.588L699.461 131.252ZM693.221 124.914H699.539C701.506 124.914 703.029 124.419 704.108 123.428C705.187 122.419 705.726 121.037 705.726 119.281C705.726 117.49 705.213 116.081 704.186 115.055C703.176 114.03 701.619 113.517 699.513 113.517H693.221V124.914Z" fill="#5E88A4"/>
<path d="M746.008 124.288L753.918 107.179H762.481L750.002 131.382V145.154H742.04V131.382L729.561 107.179H738.15L746.008 124.288Z" fill="#5E88A4"/>
<path d="M799.536 137.329H785.804L783.193 145.154H774.866L789.015 107.179H796.273L810.5 145.154H802.173L799.536 137.329ZM787.919 130.991H797.421L792.644 116.777L787.919 130.991Z" fill="#5E88A4"/>
<path d="M861 145.154H853.168L837.922 120.167V145.154H830.09V107.179H837.922L853.194 132.217V107.179H861V145.154Z" fill="#5E88A4"/>
<path fill-rule="evenodd" clip-rule="evenodd" d="M612.471 174.882V160.407H614.867C620.968 160.407 623.8 162.475 623.8 167.699C623.8 172.923 621.077 174.882 614.867 174.882H612.471Z" fill="#5E88A4"/>
<path fill-rule="evenodd" clip-rule="evenodd" d="M579 107H669.564V197.478H579V107ZM631.643 167.699C631.643 173.467 629.083 177.113 624.508 179.18L632.188 190.717H623.364L617.264 181.357C616.556 181.466 615.793 181.52 615.085 181.52H612.471V190.717H604.845V153.714H615.085C625.434 153.714 631.643 158.666 631.643 167.699ZM662.976 180.595C662.976 187.452 657.584 191.206 650.34 191.206C643.259 191.206 638.684 187.833 636.45 183.425L642.66 179.833C644.294 182.5 646.418 184.459 650.176 184.459C653.335 184.459 655.35 182.881 655.35 180.704C655.35 178.092 653.281 177.167 649.795 175.643L647.888 174.827C642.387 172.487 638.738 169.549 638.738 163.345C638.738 157.632 643.095 153.279 649.904 153.279C654.751 153.279 658.237 154.965 660.743 159.373L654.806 163.182C653.499 160.842 652.082 159.917 649.904 159.917C647.671 159.917 646.254 161.332 646.254 163.182C646.254 165.468 647.671 166.393 650.939 167.808L652.845 168.624C659.327 171.399 662.976 174.229 662.976 180.595Z" fill="#5E88A4"/>
</svg>
