<svg width="104" height="34" viewBox="0 0 104 34" fill="none" xmlns="http://www.w3.org/2000/svg">
<path d="M46.7298 30.0826C46.7298 29.5304 46.5372 29.1081 46.1521 28.8158C45.767 28.517 45.0738 28.2051 44.0725 27.8803C43.0712 27.549 42.2785 27.2242 41.6944 26.9058C40.1026 26.0353 39.3067 24.8627 39.3067 23.388C39.3067 22.6214 39.5185 21.9393 39.9422 21.3416C40.3722 20.7374 40.9852 20.2664 41.7811 19.9286C42.5834 19.5908 43.482 19.4219 44.4769 19.4219C45.4781 19.4219 46.3703 19.607 47.1534 19.9773C47.9364 20.3411 48.543 20.8576 48.973 21.5267C49.4095 22.1959 49.6277 22.956 49.6277 23.807H46.7394C46.7394 23.1574 46.5372 22.6539 46.1328 22.2966C45.7285 21.9328 45.1604 21.7509 44.4287 21.7509C43.7227 21.7509 43.1739 21.9035 42.7824 22.2089C42.3908 22.5077 42.1951 22.904 42.1951 23.3977C42.1951 23.859 42.4229 24.2455 42.8786 24.5573C43.3408 24.8692 44.0179 25.1615 44.9101 25.4344C46.5532 25.9346 47.7503 26.555 48.5013 27.2956C49.2522 28.0362 49.6277 28.9587 49.6277 30.0631C49.6277 31.291 49.1688 32.2557 48.2509 32.9573C47.3331 33.6524 46.0975 34 44.5443 34C43.4659 34 42.4839 33.8019 41.5981 33.4056C40.7124 33.0028 40.0352 32.4538 39.5667 31.7587C39.1046 31.0636 38.8735 30.258 38.8735 29.342H41.7715C41.7715 30.9077 42.6957 31.6905 44.5443 31.6905C45.231 31.6905 45.767 31.5508 46.1521 31.2715C46.5372 30.9856 46.7298 30.5893 46.7298 30.0826Z" fill="white"/>
<path d="M65.4481 27.6562H59.9025V31.4566H66.4109V33.8051H57.0141V19.6168H66.3916V21.9847H59.9025V25.3662H65.4481V27.6562Z" fill="white"/>
<path d="M80.1482 33.8051H77.2598V19.6168H80.1482V33.8051Z" fill="white"/>
<path d="M103.837 21.9847H99.5428V33.8051H96.6544V21.9847H92.4182V19.6168H103.837V21.9847Z" fill="white"/>
<path d="M44.4252 9.06122H42.1242V14.2552H39.2358V0.0668211H44.4445C46.1004 0.0668211 47.3777 0.44037 48.2763 1.18747C49.1749 1.93456 49.6242 2.99024 49.6242 4.35451C49.6242 5.32248 49.4156 6.1313 48.9984 6.78095C48.5876 7.4241 47.9618 7.93732 47.121 8.32062L50.1537 14.1187V14.2552H47.0536L44.4252 9.06122ZM42.1242 6.69325H44.4541C45.1794 6.69325 45.741 6.5081 46.139 6.13779C46.5369 5.761 46.7359 5.24453 46.7359 4.58838C46.7359 3.91924 46.5465 3.39303 46.1678 3.00973C45.7956 2.62644 45.2211 2.43479 44.4445 2.43479H42.1242V6.69325Z" fill="white"/>
<path d="M61.5915 6.45937L64.5088 0.0668211H67.6667L63.0646 9.10994V14.2552H60.1281V9.10994L55.526 0.0668211H58.6936L61.5915 6.45937Z" fill="white"/>
<path d="M81.3323 11.3317H76.2681L75.3054 14.2552H72.2341L77.4523 0.0668211H80.1289L85.376 14.2552H82.3047L81.3323 11.3317ZM77.048 8.96377H80.5525L78.7906 3.65289L77.048 8.96377Z" fill="white"/>
<path d="M104 14.2552H101.112L95.489 4.9197V14.2552H92.6007V0.0668211H95.489L101.121 9.42177V0.0668211H104V14.2552Z" fill="white"/>
<path fill-rule="evenodd" clip-rule="evenodd" d="M12.3439 25.3624V19.9543H13.2277C15.4774 19.9543 16.522 20.7269 16.522 22.6787C16.522 24.6304 15.5176 25.3624 13.2277 25.3624H12.3439Z" fill="white"/>
<path fill-rule="evenodd" clip-rule="evenodd" d="M0 0H33.3994V33.8051H0V0ZM19.4145 22.6787C19.4145 24.8338 18.4704 26.1959 16.7831 26.9685L19.6154 31.2787H16.3613L14.1115 27.7818C13.8504 27.8224 13.5692 27.8428 13.308 27.8428H12.3439V31.2787H9.53165V17.4535H13.308C17.1246 17.4535 19.4145 19.3037 19.4145 22.6787ZM30.9698 27.4971C30.9698 30.0589 28.9812 31.4617 26.3096 31.4617C23.6983 31.4617 22.011 30.2012 21.1874 28.5544L23.4773 27.2125C24.0799 28.2087 24.8633 28.9407 26.2493 28.9407C27.4144 28.9407 28.1576 28.3511 28.1576 27.5378C28.1576 26.5619 27.3943 26.2163 26.1087 25.647L25.4057 25.342C23.3769 24.4678 22.031 23.3699 22.031 21.0522C22.031 18.9174 23.638 17.2909 26.1489 17.2909C27.9367 17.2909 29.2222 17.9212 30.1463 19.568L27.9568 20.9912C27.4747 20.1169 26.9524 19.7713 26.1489 19.7713C25.3253 19.7713 24.8031 20.2999 24.8031 20.9912C24.8031 21.8451 25.3253 22.1907 26.5306 22.7193L27.2336 23.0243C29.624 24.0612 30.9698 25.1184 30.9698 27.4971Z" fill="white"/>
</svg>
