<svg width="282" height="91" viewBox="0 0 282 91" fill="none" xmlns="http://www.w3.org/2000/svg">
<path d="M126.71 80.5152C126.71 79.0373 126.187 77.9071 125.143 77.1246C124.099 76.3248 122.219 75.4902 119.504 74.6208C116.789 73.734 114.64 72.8647 113.056 72.0127C108.74 69.6827 106.582 66.5442 106.582 62.5972C106.582 60.5455 107.156 58.7198 108.305 57.1201C109.471 55.5031 111.133 54.2425 113.291 53.3383C115.467 52.4341 117.903 51.9821 120.601 51.9821C123.316 51.9821 125.735 52.4776 127.858 53.4687C129.982 54.4424 131.626 55.8247 132.792 57.6157C133.976 59.4066 134.567 61.441 134.567 63.7187H126.736C126.736 61.98 126.187 60.6324 125.091 59.6761C123.994 58.7024 122.454 58.2155 120.47 58.2155C118.556 58.2155 117.068 58.6241 116.006 59.4414C114.944 60.2412 114.414 61.3019 114.414 62.6233C114.414 63.8578 115.031 64.8924 116.267 65.727C117.52 66.5616 119.356 67.3441 121.775 68.0743C126.231 69.4132 129.477 71.0737 131.513 73.0559C133.549 75.0381 134.567 77.5072 134.567 80.4631C134.567 83.7493 133.323 86.3314 130.834 88.2093C128.346 90.0698 124.995 91 120.783 91C117.86 91 115.197 90.4697 112.795 89.409C110.393 88.331 108.557 86.8617 107.287 85.0013C106.034 83.1408 105.407 80.9847 105.407 78.533H113.265C113.265 82.7235 115.771 84.8187 120.783 84.8187C122.646 84.8187 124.099 84.4448 125.143 83.6972C126.187 82.9321 126.71 81.8715 126.71 80.5152Z" fill="#5E88A4"/>
<path d="M177.465 74.0209H162.428V84.1927H180.076V90.4784H154.596V52.5037H180.023V58.8415H162.428V67.8918H177.465V74.0209Z" fill="#5E88A4"/>
<path d="M217.325 90.4784H209.493V52.5037H217.325V90.4784Z" fill="#5E88A4"/>
<path d="M281.557 58.8415H269.914V90.4784H262.082V58.8415H250.596V52.5037H281.557V58.8415Z" fill="#5E88A4"/>
<path d="M120.461 24.2521H114.221V38.1535H106.389V0.178845H120.513C125.003 0.178845 128.467 1.17864 130.903 3.17822C133.34 5.1778 134.558 8.0033 134.558 11.6547C134.558 14.2455 133.992 16.4102 132.861 18.149C131.747 19.8704 130.05 21.244 127.77 22.2699L135.994 37.7884V38.1535H127.588L120.461 24.2521ZM114.221 17.9143H120.539C122.506 17.9143 124.029 17.4187 125.108 16.4276C126.187 15.4191 126.726 14.0368 126.726 12.2807C126.726 10.4897 126.213 9.08134 125.186 8.05546C124.176 7.02959 122.619 6.51665 120.513 6.51665H114.221V17.9143Z" fill="#5E88A4"/>
<path d="M167.008 17.2883L174.918 0.178845H183.481L171.002 24.3825V38.1535H163.04V24.3825L150.561 0.178845H159.15L167.008 17.2883Z" fill="#5E88A4"/>
<path d="M220.536 30.3291H206.804L204.193 38.1535H195.866L210.015 0.178845H217.273L231.5 38.1535H223.173L220.536 30.3291ZM208.919 23.9913H218.421L213.644 9.77684L208.919 23.9913Z" fill="#5E88A4"/>
<path d="M282 38.1535H274.168L258.922 13.1674V38.1535H251.09V0.178845H258.922L274.194 25.2171V0.178845H282V38.1535Z" fill="#5E88A4"/>
<path fill-rule="evenodd" clip-rule="evenodd" d="M33.4708 67.8816V53.407H35.8674C41.9677 53.407 44.8 55.4748 44.8 60.6987C44.8 65.9227 42.0766 67.8816 35.8674 67.8816H33.4708Z" fill="#5E88A4"/>
<path fill-rule="evenodd" clip-rule="evenodd" d="M0 0H90.5637V90.4784H0V0ZM52.6432 60.6987C52.6432 66.4668 50.0833 70.1127 45.5081 72.1805L53.1879 83.7166H44.3642L38.2639 74.3571C37.5559 74.466 36.7933 74.5204 36.0852 74.5204H33.4708V83.7166H25.8454V46.7139H36.0852C46.434 46.7139 52.6432 51.6657 52.6432 60.6987ZM83.9759 73.5953C83.9759 80.4517 78.5836 84.2064 71.3395 84.2064C64.2588 84.2064 59.6835 80.8326 57.4504 76.4249L63.6596 72.8335C65.2937 75.4999 67.4179 77.4588 71.1761 77.4588C74.3352 77.4588 76.3505 75.8808 76.3505 73.7041C76.3505 71.0922 74.2807 70.1671 70.7948 68.6435L68.8885 67.8272C63.3873 65.4873 59.738 62.5489 59.738 56.3455C59.738 50.6318 64.0954 46.2786 70.9038 46.2786C75.7513 46.2786 79.2372 47.9654 81.7427 52.3731L75.8058 56.1822C74.4986 53.8424 73.0825 52.9173 70.9038 52.9173C68.6706 52.9173 67.2545 54.3321 67.2545 56.1822C67.2545 58.4677 68.6706 59.3928 71.9387 60.8076L73.845 61.6238C80.3266 64.399 83.9759 67.2286 83.9759 73.5953Z" fill="#5E88A4"/>
</svg>
